<svg xmlns="http://www.w3.org/2000/svg" version="1.1" xmlns:xlink="http://www.w3.org/1999/xlink" xmlns:svgjs="http://svgjs.dev/svgjs" width="2000" height="717" viewBox="0 0 2000 717"><g transform="matrix(1,0,0,1,-1.2121212121212466,-0.7587213031121678)"><svg viewBox="0 0 396 142" data-background-color="#0080ff" preserveAspectRatio="xMidYMid meet" height="717" width="2000" xmlns="http://www.w3.org/2000/svg" xmlns:xlink="http://www.w3.org/1999/xlink"><g id="tight-bounds" transform="matrix(1,0,0,1,0.2400000000000091,0.15026279643225848)"><svg viewBox="0 0 395.52 141.69947440713548" height="141.69947440713548" width="395.52"><g><svg viewBox="0 0 648.9968204194909 232.5103871999999" height="141.69947440713548" width="395.52"><g transform="matrix(1,0,0,1,253.47682041949082,71.84908450909087)"><svg viewBox="0 0 395.52 88.81221818181817" height="88.81221818181817" width="395.52"><g id="textblocktransform"><svg viewBox="0 0 395.52 88.81221818181817" height="88.81221818181817" width="395.52" id="textblock"><g><svg viewBox="0 0 395.52 88.81221818181817" height="88.81221818181817" width="395.52"><g transform="matrix(1,0,0,1,0,0)"><svg width="395.52" viewBox="2.32 -40.6 241.68 54.27" height="88.81221818181817" data-palette-color="#ffffff"><path d="M10.82-18.38L27.17-34.23 24.41-34.74 24.41-36.82 35.86-36.82 35.86-34.74 31.49-34.23 15.97-19.31 30.86-3.39 32.76-2.47 35.94-2.08 35.94 0 27.34 0 10.82-18.38ZM2.32-34.74L2.32-36.82 14.28-36.82 14.28-34.74 10.62-34.18 10.62-2.64 14.28-2.08 14.28 0 2.32 0 2.32-2.08 6.1-2.64 6.1-34.18 2.32-34.74ZM58.98-5.59L58.98-5.59 60.37-4Q56.49-0.51 52.85 0.37L52.85 0.37Q52.05 0.56 51.27 0.56L51.27 0.56Q45.9 0.56 42.53-2.83L42.53-2.83Q39.18-6.15 39.18-11.5L39.18-11.5Q39.18-16.82 42.33-20.61L42.33-20.61Q45.8-24.73 51.34-24.73L51.34-24.73Q55.17-24.73 57.81-21.97L57.81-21.97Q60.62-19.09 60.62-14.48L60.62-14.48 59.47-13.45 43.55-12.3Q43.6-7.86 46.43-5.2L46.43-5.2Q48.97-2.86 52.34-2.86 55.71-2.86 58.98-5.59ZM43.72-14.6L43.72-14.6 56.27-15.75Q56.1-19.8 53.15-21.31L53.15-21.31Q52.1-21.85 50.46-21.85 48.83-21.85 47.54-21.04 46.26-20.24 45.43-19.09L45.43-19.09Q43.85-16.92 43.72-14.6ZM79.76-21.56L79.76-21.56Q75.48-21.56 71.82-18.97L71.82-18.97 71.82-2.59 74.92-2.03 74.92 0 64.72 0 64.72-2.03 67.87-2.59 67.87-20.36 64.72-20.92 64.72-22.95 71.82-24.73 71.82-21.56Q76.41-24.73 80.46-24.73L80.46-24.73Q85.54-24.73 87.06-21.51L87.06-21.51Q89.55-23.24 91.91-23.99 94.28-24.73 95.94-24.73L95.94-24.73Q99.65-24.73 101.47-22.88 103.29-21.02 103.29-17.19L103.29-17.19 103.29-2.59 106.37-2.03 106.37 0 96.21 0 96.21-2.03 99.31-2.59 99.31-17.19Q99.31-19.38 98.02-20.56L98.02-20.56Q96.92-21.56 95.28-21.56L95.28-21.56Q91.08-21.56 87.59-19.04L87.59-19.04Q87.71-17.82 87.71-17.19L87.71-17.19 87.71-2.59 90.52-2.03 90.52 0 80.85 0 80.85-2.03 83.71-2.59 83.71-17.19Q83.71-19.38 82.49-20.56L82.49-20.56Q81.44-21.56 79.76-21.56ZM122.45 0.56L122.45 0.56Q119.3 0.56 116.5-0.63L116.5-0.63 116.5 11.08 119.6 11.65 119.6 13.67 109.34 13.67 109.34 11.65 112.52 11.08 112.52-20.53 109.34-21.12 109.34-23.1 116.5-24.73 116.5-21.51Q120.77-24.73 124.94-24.73L124.94-24.73Q129.41-24.73 132.27-21.44L132.27-21.44Q135.17-18.09 135.17-12.67L135.17-12.67Q135.17-7.28 131.95-3.54L131.95-3.54Q128.43 0.56 122.45 0.56ZM116.5-19.04L116.5-19.04 116.5-5.1Q118.6-2.29 123.16-2.29L123.16-2.29Q126.68-2.29 128.87-5.08L128.87-5.08Q130.93-7.64 130.93-11.25L130.93-11.25Q130.93-15.72 129.07-18.51L129.07-18.51Q127.07-21.56 123.63-21.56 120.18-21.56 116.5-19.04ZM140.37-7.13L141.64-7.13Q141.64-2.03 147.89-2.03L147.89-2.03Q150.26-2.03 151.67-3.08L151.67-3.08Q152.97-4.03 152.97-5.47L152.97-5.47Q152.97-6.98 152.21-7.81L152.21-7.81Q150.72-9.45 147.9-10.42 145.08-11.4 143.68-12.29 142.28-13.18 141.47-14.16L141.47-14.16Q140.08-15.82 140.08-17.74 140.08-19.65 140.8-20.87 141.52-22.09 142.69-22.95L142.69-22.95Q145.18-24.73 148.45-24.73L148.45-24.73Q152.38-24.73 155.31-23L155.31-23 154.75-18.29 153.43-18.29Q153.43-22.12 148.33-22.12L148.33-22.12Q146.11-22.12 144.96-21.25 143.81-20.39 143.81-19.09L143.81-19.09Q143.81-16.24 150.19-13.92L150.19-13.92Q156.14-11.72 156.9-8.18L156.9-8.18Q157.09-7.18 157.09-5.8 157.09-4.42 156.2-3.13 155.31-1.83 153.97-1.03L153.97-1.03Q151.36 0.56 147.94 0.56L147.94 0.56Q144.59 0.56 141.69-0.73L141.69-0.73Q140.4-1.29 139.44-2.03L139.44-2.03 140.37-7.13ZM174.72-21.56L174.72-21.56Q171.03-21.56 167.1-18.97L167.1-18.97 167.1-2.59 170.2-2.03 170.2 0 159.95 0 159.95-2.03 163.12-2.59 163.12-36.21 159.95-36.82 159.95-38.79 167.1-40.6 167.1-21.56Q169.54-23.24 171.9-23.99 174.26-24.73 175.92-24.73 177.58-24.73 178.89-24.27 180.21-23.8 181.14-22.85L181.14-22.85Q183.09-20.87 183.09-17.19L183.09-17.19 183.09-2.59 186.19-2.03 186.19 0 175.96 0 175.96-2.03 179.11-2.59 179.11-16.72Q179.11-21.56 174.72-21.56ZM195.83-24.73L195.83-2.59 198.96-2.03 198.96 0 188.71 0 188.71-2.03 191.88-2.59 191.88-20.36 188.71-20.92 188.71-22.95 195.83-24.73ZM191.75-32.19Q191.34-32.62 191.1-33.15 190.85-33.69 190.85-34.22 190.85-34.74 191.1-35.27 191.34-35.79 191.73-36.23L191.73-36.23Q192.64-37.21 193.38-37.21 194.13-37.21 194.65-36.94 195.18-36.67 195.59-36.23L195.59-36.23Q196.49-35.23 196.49-34.46 196.49-33.69 196.24-33.15 195.98-32.62 195.59-32.18L195.59-32.18Q194.66-31.23 193.89-31.23 193.12-31.23 192.64-31.49 192.15-31.76 191.75-32.19ZM204.16-2.59L204.16-20.36 201.03-20.92 201.03-22.95 208.11-24.73 208.11-18.51Q213.73-24.73 216.56-24.73L216.56-24.73Q218.88-24.73 220.83-22.88L220.83-22.88 219.56-18.92 218.42-18.92Q218.42-20.12 216.58-20.7L216.58-20.7Q216.07-20.85 215.56-20.85L215.56-20.85Q212.97-20.85 208.11-15.65L208.11-15.65 208.11-2.59 212.95-2.03 212.95 0 201.03 0 201.03-2.03 204.16-2.59ZM242.36-5.59L242.36-5.59 243.75-4Q239.87-0.51 236.23 0.37L236.23 0.37Q235.43 0.56 234.65 0.56L234.65 0.56Q229.28 0.56 225.91-2.83L225.91-2.83Q222.56-6.15 222.56-11.5L222.56-11.5Q222.56-16.82 225.71-20.61L225.71-20.61Q229.18-24.73 234.72-24.73L234.72-24.73Q238.55-24.73 241.19-21.97L241.19-21.97Q244-19.09 244-14.48L244-14.48 242.85-13.45 226.93-12.3Q226.98-7.86 229.81-5.2L229.81-5.2Q232.35-2.86 235.72-2.86 239.09-2.86 242.36-5.59ZM227.1-14.6L227.1-14.6 239.65-15.75Q239.48-19.8 236.53-21.31L236.53-21.31Q235.48-21.85 233.84-21.85 232.21-21.85 230.92-21.04 229.64-20.24 228.81-19.09L228.81-19.09Q227.23-16.92 227.1-14.6Z" opacity="1" transform="matrix(1,0,0,1,0,0)" fill="#ffffff" class="wordmark-text-0" data-fill-palette-color="primary" id="text-0"></path></svg></g></svg></g></svg></g></svg></g><g><svg viewBox="0 0 232.5103871999999 232.5103871999999" height="232.5103871999999" width="232.5103871999999"><g><svg xmlns="http://www.w3.org/2000/svg" xmlns:xlink="http://www.w3.org/1999/xlink" version="1.1" x="0" y="0" viewBox="0 0 100 100" enable-background="new 0 0 100 100" xml:space="preserve" height="232.5103871999999" width="232.5103871999999" class="icon-icon-0" data-fill-palette-color="accent" id="icon-0"><g fill="#ffffff" data-fill-palette-color="accent"><g fill="#ffffff" data-fill-palette-color="accent"><g fill="#ffffff" data-fill-palette-color="accent"><path fill-rule="evenodd" clip-rule="evenodd" d="M32.745 15.371c-0.271-0.135-0.646-0.198-0.803-0.417-1.221-1.707-3.045-1.992-4.592-0.594-2.899 2.619-4.288 6.068-5.353 9.66 1.51-2.582 3.022-5.174 4.546-7.762 0.164-0.275 0.349-0.57 0.598-0.753 0.993-0.722 2.138-1.875 3.271-0.88 0.65 0.57 0.961 2.121 0.702 3.023-1.188 4.193-2.442 8.391-4.074 12.426-0.646 1.592-2.116 3.082-3.584 4.062-3.77 2.514-7.757 4.701-10.634 8.548-2.312-2.151-4.469-4.16-6.611-6.158 1.795-2.033 3.519-3.898 5.144-5.843 2.031-2.433 3.527-5.153 4.3-8.269 0.399-1.618 0.953-3.204 1.523-4.771 0.923-2.511 2.73-4.418 5.091-5.396 5.226-2.164 10.57-4.047 15.905-5.939 1.616-0.573 3.349-0.848 5.047-1.144 0.721-0.127 1.525-0.08 2.234 0.108 1.299 0.344 1.67 1.477 0.782 2.475-0.636 0.711-1.433 1.352-2.28 1.776-2.799 1.405-5.672 2.657-8.476 4.052-0.99 0.494-1.864 1.224-2.791 1.846L32.745 15.371z" fill="#ffffff" data-fill-palette-color="accent"></path><path fill-rule="evenodd" clip-rule="evenodd" d="M93.788 36.468c-2.172 2.055-4.283 4.051-6.447 6.1-0.303-0.252-0.579-0.42-0.774-0.653-2.369-2.805-5.238-4.971-8.46-6.702-3.087-1.658-5.233-4.104-6.25-7.509-0.862-2.896-1.82-5.765-2.67-8.663-0.239-0.818-0.342-1.704-0.344-2.56-0.003-2 1.42-2.842 2.991-1.596 1.272 1.012 2.336 2.386 3.213 3.774 1.087 1.724 1.889 3.631 2.889 5.416-0.978-3.574-2.259-7.008-5.117-9.569-1.889-1.689-3.61-1.423-5.049 0.73-4.18-2.061-8.392-4.094-12.558-6.221-1.031-0.525-2.313-1.271-1.818-2.698 0.537-1.548 2.084-1.413 3.345-1.166 7.122 1.406 14.006 3.579 20.543 6.768 3.944 1.925 5.75 5.502 6.697 9.471 1.179 4.931 3.937 8.822 7.285 12.42C92.068 34.671 92.887 35.519 93.788 36.468z" fill="#ffffff" data-fill-palette-color="accent"></path><path fill-rule="evenodd" clip-rule="evenodd" d="M32.691 15.423c3.756-1.703 7.514-3.407 11.409-5.174 0.306 1.55-0.601 2.408-1.63 2.873-2.439 1.108-4.965 2.04-7.479 2.979-0.79 0.296-1.652 0.39-2.864 0.661 0.282-0.636 0.448-1.013 0.616-1.391C32.745 15.371 32.691 15.423 32.691 15.423z" fill="#ffffff" data-fill-palette-color="accent"></path><path fill-rule="evenodd" clip-rule="evenodd" d="M55.904 10.119c3.979 2.259 8.353 3.414 11.968 6.027-0.072 0.188-0.146 0.379-0.221 0.569-1.196-0.314-2.429-0.539-3.586-0.967-2.261-0.838-4.514-1.715-6.703-2.722C56.348 12.563 55.568 11.715 55.904 10.119z" fill="#ffffff" data-fill-palette-color="accent"></path><path fill-rule="evenodd" clip-rule="evenodd" d="M41.378 14.466c-2.418 2.829-5.843 3.13-9.181 3.674-0.064-0.183-0.131-0.365-0.195-0.548C35.128 16.549 38.252 15.508 41.378 14.466z" fill="#ffffff" data-fill-palette-color="accent"></path><path fill-rule="evenodd" clip-rule="evenodd" d="M58.429 14.453c3.196 1.053 6.342 2.089 9.839 3.24C65.546 18.462 59.438 16.309 58.429 14.453z" fill="#ffffff" data-fill-palette-color="accent"></path><path fill-rule="evenodd" clip-rule="evenodd" d="M38.897 17.311c-0.911 1.326-5.105 2.958-6.599 2.594-0.215-0.053-0.565-0.333-0.54-0.431 0.066-0.275 0.258-0.68 0.471-0.726C34.424 18.236 36.63 17.789 38.897 17.311z" fill="#ffffff" data-fill-palette-color="accent"></path><path fill-rule="evenodd" clip-rule="evenodd" d="M61.02 17.081c2.507 1.155 5.153 1.008 7.296 2.403C65.968 20.171 62.138 18.921 61.02 17.081z" fill="#ffffff" data-fill-palette-color="accent"></path></g><g fill="#ffffff" data-fill-palette-color="accent"><path d="M40.988 59.435l2.593-12.614v10.69L40.86 91.547c-0.469 4.104 5.69 4.808 6.158 0.706l2.45-25.151c0.09-0.808 1.044-0.812 1.136 0l2.536 25.024c0.479 4.103 6.635 3.382 6.155-0.726l-2.867-33.992V46.865l2.585 12.565c0.55 3.781 5.367 2.883 4.417-1.173l-4.023-19.334c0 0-1.276-5.542-5.839-5.542h-1.133-4.87-1.132c-4.562 0-5.839 5.542-5.839 5.542l-4.027 19.334C35.619 62.313 40.438 63.212 40.988 59.435z" fill="#ffffff" data-fill-palette-color="accent"></path><circle cx="49.81" cy="25.105" r="6.5" fill="#ffffff" data-fill-palette-color="accent"></circle></g></g></g></svg></g></svg></g></svg></g><defs></defs></svg><rect width="395.52" height="141.69947440713548" fill="none" stroke="none" visibility="hidden"></rect></g></svg></g></svg>